<svg xmlns="http://www.w3.org/2000/svg" viewBox="0 0 353.75 198.1"><defs><style>.cls-1{fill:#003de8;}.cls-2{fill:#141616;}</style></defs><g id="Layer_2" data-name="Layer 2"><g id="Layer_1-2" data-name="Layer 1"><path class="cls-1" d="M304.23,67.21V64.35a7.75,7.75,0,0,0-7.75-7.75H229.41a6.56,6.56,0,0,0-6.55,6.54V95.51h73.62a7.74,7.74,0,0,0,7.75-7.74V77.83h49.52v27.73a36,36,0,0,1-35.94,35.94H222.86v18a38.62,38.62,0,0,1-38.59,38.59H169.8V0H318.06a35.7,35.7,0,0,1,35.69,35.69V67.21Z"/><path class="cls-2" d="M222.86,0V159.51a38.62,38.62,0,0,1-38.59,38.59H35.62A35.62,35.62,0,0,1,0,162.48V109.66H49.53v18.75A13.1,13.1,0,0,0,62.61,141.5h90.56a13.1,13.1,0,0,0,13.09-13.09V56.6H62.61A13.1,13.1,0,0,0,49.53,69.69V88.44H0V38A37.94,37.94,0,0,1,38,0Z"/></g></g></svg>